<svg xmlns="http://www.w3.org/2000/svg" width="52.5" viewBox="0 0 52.5 52.5" height="52.5" version="1.0"><defs><clipPath id="a"><path d="M 0 0 L 52.003906 0 L 52.003906 52.003906 L 0 52.003906 Z M 0 0"/></clipPath></defs><g clip-path="url(#a)"><path fill="#12100E" d="M 7.875 0 L 44.625 0 C 45.140625 0 45.652344 0.0507812 46.160156 0.152344 C 46.667969 0.253906 47.160156 0.402344 47.636719 0.597656 C 48.117188 0.796875 48.570312 1.039062 49 1.328125 C 49.429688 1.613281 49.828125 1.941406 50.195312 2.304688 C 50.558594 2.671875 50.886719 3.070312 51.171875 3.5 C 51.460938 3.929688 51.703125 4.382812 51.902344 4.863281 C 52.097656 5.339844 52.246094 5.832031 52.347656 6.339844 C 52.449219 6.847656 52.5 7.359375 52.5 7.875 L 52.5 44.625 C 52.5 45.140625 52.449219 45.652344 52.347656 46.160156 C 52.246094 46.667969 52.097656 47.160156 51.902344 47.636719 C 51.703125 48.117188 51.460938 48.570312 51.171875 49 C 50.886719 49.429688 50.558594 49.828125 50.195312 50.195312 C 49.828125 50.558594 49.429688 50.886719 49 51.171875 C 48.570312 51.460938 48.117188 51.703125 47.636719 51.902344 C 47.160156 52.097656 46.667969 52.246094 46.160156 52.347656 C 45.652344 52.449219 45.140625 52.5 44.625 52.5 L 7.875 52.5 C 7.359375 52.5 6.847656 52.449219 6.339844 52.347656 C 5.832031 52.246094 5.339844 52.097656 4.863281 51.902344 C 4.382812 51.703125 3.929688 51.460938 3.5 51.171875 C 3.070312 50.886719 2.671875 50.558594 2.304688 50.195312 C 1.941406 49.828125 1.613281 49.429688 1.328125 49 C 1.039062 48.570312 0.796875 48.117188 0.597656 47.636719 C 0.402344 47.160156 0.253906 46.667969 0.152344 46.160156 C 0.0507812 45.652344 0 45.140625 0 44.625 L 0 7.875 C 0 7.359375 0.0507812 6.847656 0.152344 6.339844 C 0.253906 5.832031 0.402344 5.339844 0.597656 4.863281 C 0.796875 4.382812 1.039062 3.929688 1.328125 3.5 C 1.613281 3.070312 1.941406 2.671875 2.304688 2.304688 C 2.671875 1.941406 3.070312 1.613281 3.5 1.328125 C 3.929688 1.039062 4.382812 0.796875 4.863281 0.597656 C 5.339844 0.402344 5.832031 0.253906 6.339844 0.152344 C 6.847656 0.0507812 7.359375 0 7.875 0 Z M 7.875 0"/></g><path fill="#FFF" d="M 12.816406 17.738281 C 12.816406 17.328125 12.613281 16.816406 12.304688 16.609375 L 9.125 12.714844 L 9.125 12.097656 L 19.175781 12.097656 L 26.863281 29.121094 L 33.734375 12.097656 L 43.269531 12.097656 L 43.269531 12.714844 L 40.503906 15.378906 C 40.296875 15.484375 40.195312 15.789062 40.195312 16.097656 L 40.195312 35.582031 C 40.195312 35.886719 40.296875 36.195312 40.503906 36.402344 L 43.269531 38.964844 L 43.269531 39.578125 L 29.632812 39.578125 L 29.632812 38.964844 L 32.402344 36.296875 C 32.710938 35.992188 32.710938 35.886719 32.710938 35.476562 L 32.710938 19.789062 L 24.917969 39.476562 L 23.890625 39.476562 L 14.867188 19.789062 L 14.867188 33.015625 C 14.765625 33.53125 14.96875 34.144531 15.378906 34.554688 L 18.96875 38.964844 L 18.96875 39.476562 L 8.714844 39.476562 L 8.714844 38.964844 L 12.304688 34.554688 C 12.714844 34.144531 12.917969 33.53125 12.816406 33.015625 Z M 12.816406 17.738281"/></svg>